<svg width="244" height="133" viewBox="0 0 244 133" fill="none" xmlns="http://www.w3.org/2000/svg">
<path d="M28.7837 60.8532V84.3532L46.7537 94.7232L70.4937 108.433L88.1337 118.613L100.954 110.623L105.414 107.843L118.934 99.4131V32.0632L114.994 29.7932L64.7437 0.783203L55.7537 16.3432L100.954 42.4432V89.4332L87.7737 97.6531L46.7537 73.9732V60.8532H28.7837Z" fill="#010101"/>
<path d="M0.443359 34.4532V101.323L18.4133 111.693L55.1533 132.913L64.1433 117.343L18.4133 90.9432V44.4232L31.9534 35.9832L72.3633 59.3132V72.8732H90.3333V48.9332L82.9534 44.6732L47.8733 24.4232L31.5933 15.0232L26.8433 17.9732L26.8333 17.9832L5.05334 31.5732L0.443359 34.4532Z" fill="#010101"/>
<path d="M231.973 132.863L200.893 89.4532L200.393 88.7532C199.393 88.8232 198.393 88.8632 197.393 88.8632L172.853 89.4532H149.143V132.863H139.813V80.1332H195.523C198.625 80.1513 201.713 79.7064 204.683 78.8132H204.743C212.863 76.3279 219.819 71.0058 224.341 63.8182C228.863 56.6305 230.649 48.0566 229.375 39.6611C228.1 31.2656 223.849 23.6082 217.398 18.0864C210.947 12.5647 202.725 9.54667 194.233 9.58319H139.793V0.263184H196.143C200.176 0.265806 204.189 0.834696 208.063 1.95319C213.498 3.53219 218.587 6.12064 223.063 9.58319C228.091 13.3731 232.252 18.1924 235.268 23.7192C238.284 29.2459 240.085 35.3528 240.552 41.6316C241.019 47.9104 240.14 54.2163 237.974 60.1282C235.808 66.0401 232.406 71.4217 227.993 75.9131C226.505 77.4318 224.908 78.839 223.213 80.1232C219.373 83.0544 215.061 85.31 210.463 86.7932L212.363 89.4432L243.443 132.853L231.973 132.863Z" fill="#010101"/>
</svg>
