<svg width="245" height="140" viewBox="0 0 245 140" fill="none" xmlns="http://www.w3.org/2000/svg">
<path d="M29.4502 61.0301V84.72L47.5702 95.19L71.5102 109.01L89.3102 119.28L102.24 111.22L106.74 108.41L120.36 99.9101V31.9901L116.4 29.7001L65.7102 0.430054L56.6502 16.1301L102.24 42.4501V89.84L88.9402 98.1401L47.5702 74.2501V61.0301H29.4502Z" fill="white"/>
<path d="M0.859863 34.3901V101.83L18.9899 112.3L56.0499 133.7L65.1099 118L18.9899 91.3701V44.46L32.6399 35.9401L73.3999 59.47V73.1501H91.5298V49.0001L84.0799 44.7001L48.6999 24.28L32.2899 14.8L27.4899 17.78L5.5199 31.4901L0.859863 34.3901Z" fill="white"/>
<path d="M232.94 139.66L201.56 95.8701L201.05 95.1701C200.05 95.2401 199.05 95.2801 198.05 95.2801L173.3 95.8701H149.38V139.66H139.97V86.47H196.16C199.289 86.489 202.404 86.0407 205.4 85.1401H205.46C213.626 82.6176 220.615 77.2485 225.158 70.0091C229.7 62.7697 231.494 54.1406 230.213 45.6906C228.932 37.2407 224.661 29.5309 218.177 23.9631C211.693 18.3952 203.427 15.339 194.88 15.35H139.97V5.95007H196.75C200.81 5.95817 204.848 6.53026 208.75 7.65002C214.248 9.24253 219.398 11.8546 223.93 15.35C229 19.1714 233.196 24.0304 236.239 29.6027C239.281 35.1749 241.1 41.3321 241.573 47.6631C242.046 53.9942 241.163 60.3534 238.983 66.316C236.803 72.2786 233.376 77.7074 228.93 82.2401C224.01 87.278 217.944 91.0519 211.25 93.2401L213.16 95.9101L244.56 139.66H232.94Z" fill="white"/>
</svg>
